<?xml version="1.0" encoding="UTF-8"?>
<svg id="Camada_1" data-name="Camada 1" xmlns="http://www.w3.org/2000/svg" viewBox="0 0 1920 618">
  <defs>
    <style>
      .cls-1, .cls-2 {
        fill: #f39200;
      }

      .cls-3 {
        fill: #9d9d9c;
      }

      .cls-2 {
        opacity: .4;
      }

      .cls-4 {
        fill: #ededed;
      }
    </style>
  </defs>
  <rect class="cls-4" width="1920" height="618"/>
  <g>
    <path class="cls-1" d="m918.17,186.49c32.9-31.59,77.42-51.05,126.4-51.05,88.86,0,163.11,63.94,179.69,148.44h27.69c-16.93-99.7-103.45-175.85-207.38-175.85-65.9,0-124.8,30.64-163.42,78.46h37.02Z"/>
    <path class="cls-1" d="m1223.53,355.26c-16.67,84.5-91.31,148.44-180.63,148.44s-165.42-65.23-181.08-150.99h-27.84c15.95,100.95,103.56,178.39,208.92,178.39s191.44-76.15,208.46-175.84h-27.84Z"/>
    <path class="cls-3" d="m675.22,273.33c-3.22,5.95-8.26,10.75-15.12,14.39-6.86,3.64-15.51,5.46-25.96,5.46h-21.31v48.82h-25.5v-127.15h46.81c9.84,0,18.22,1.7,25.14,5.1,6.92,3.4,12.11,8.08,15.57,14.03,3.46,5.95,5.19,12.69,5.19,20.22,0,6.8-1.61,13.18-4.83,19.13Zm-26.5-5.55c3.4-3.22,5.1-7.74,5.1-13.57,0-12.39-6.92-18.58-20.77-18.58h-20.22v36.98h20.22c7.04,0,12.27-1.61,15.67-4.83Z"/>
    <path class="cls-3" d="m791.16,299.19h-73.77c.61,7.29,3.16,13,7.65,17.12,4.49,4.13,10.02,6.19,16.58,6.19,9.47,0,16.21-4.07,20.22-12.2h27.51c-2.91,9.71-8.5,17.7-16.76,23.95-8.26,6.26-18.4,9.38-30.42,9.38-9.72,0-18.43-2.16-26.14-6.47-7.71-4.31-13.72-10.41-18.03-18.31-4.31-7.89-6.47-17-6.47-27.32s2.12-19.61,6.37-27.51c4.25-7.89,10.2-13.96,17.85-18.21,7.65-4.25,16.45-6.38,26.41-6.38s18.19,2.07,25.78,6.19c7.59,4.13,13.48,9.99,17.67,17.58,4.19,7.59,6.28,16.3,6.28,26.14,0,3.64-.25,6.92-.73,9.84Zm-25.68-17.12c-.12-6.56-2.49-11.81-7.1-15.76-4.62-3.94-10.26-5.92-16.94-5.92-6.32,0-11.63,1.91-15.94,5.74-4.31,3.83-6.95,9.14-7.92,15.94h47.91Z"/>
    <path class="cls-3" d="m840.16,262.03v48.82c0,3.4.82,5.86,2.46,7.38,1.64,1.52,4.4,2.28,8.29,2.28h11.84v21.5h-16.03c-21.5,0-32.24-10.44-32.24-31.33v-48.64h-12.02v-20.95h12.02v-24.95h25.68v24.95h22.59v20.95h-22.59Z"/>
    <path class="cls-1" d="m960.84,222.69c10.14,5.22,17.97,12.66,23.5,22.31,5.53,9.65,8.29,20.86,8.29,33.61s-2.76,23.9-8.29,33.43c-5.53,9.54-13.36,16.91-23.5,22.13-10.14,5.22-21.89,7.83-35.25,7.83h-44.44v-127.15h44.44c13.36,0,25.11,2.61,35.25,7.83Zm-5.19,86.71c7.29-7.29,10.93-17.55,10.93-30.79s-3.64-23.59-10.93-31.06c-7.29-7.47-17.61-11.2-30.97-11.2h-18.04v83.98h18.04c13.36,0,23.68-3.64,30.97-10.93Z"/>
    <path class="cls-1" d="m1104.84,299.19h-73.78c.61,7.29,3.16,13,7.65,17.12,4.49,4.13,10.02,6.19,16.58,6.19,9.47,0,16.21-4.07,20.22-12.2h27.51c-2.92,9.71-8.5,17.7-16.76,23.95-8.26,6.26-18.4,9.38-30.42,9.38-9.72,0-18.43-2.16-26.14-6.47-7.71-4.31-13.72-10.41-18.04-18.31-4.31-7.89-6.47-17-6.47-27.32s2.12-19.61,6.38-27.51c4.25-7.89,10.2-13.96,17.85-18.21,7.65-4.25,16.45-6.38,26.41-6.38s18.18,2.07,25.77,6.19c7.59,4.13,13.48,9.99,17.67,17.58,4.19,7.59,6.29,16.3,6.29,26.14,0,3.64-.25,6.92-.73,9.84Zm-25.68-17.12c-.12-6.56-2.49-11.81-7.1-15.76-4.62-3.94-10.27-5.92-16.94-5.92-6.32,0-11.63,1.91-15.94,5.74-4.31,3.83-6.95,9.14-7.93,15.94h47.91Z"/>
    <path class="cls-1" d="m1179.89,342l-20.77-31.33-18.4,31.33h-27.32l32.97-50.64-33.34-50.28h28.78l20.58,31.15,18.58-31.15h27.32l-33.15,50.28,33.52,50.64h-28.78Z"/>
    <path class="cls-3" d="m1227.7,338.99c-2.98-2.85-4.46-6.4-4.46-10.66s1.49-7.8,4.46-10.66c2.97-2.85,6.77-4.28,11.39-4.28s8.2,1.43,11.11,4.28c2.91,2.86,4.37,6.41,4.37,10.66s-1.46,7.8-4.37,10.66c-2.91,2.86-6.62,4.28-11.11,4.28s-8.41-1.43-11.39-4.28Z"/>
    <g>
      <path class="cls-3" d="m1219.9,315.98c8.68,0,8.69-13.49,0-13.49s-8.69,13.49,0,13.49h0Z"/>
      <path class="cls-3" d="m1239.79,309.61c8.68,0,8.69-13.49,0-13.49s-8.69,13.49,0,13.49h0Z"/>
      <path class="cls-3" d="m1257.89,318.02c8.68,0,8.69-13.49,0-13.49s-8.69,13.49,0,13.49h0Z"/>
    </g>
    <g>
      <g>
        <path class="cls-3" d="m1107.34,401.53c7.39,0,7.4-11.48,0-11.48s-7.4,11.48,0,11.48h0Z"/>
        <path class="cls-3" d="m1076.53,432.39c-2.53,15.47-4.36,31.01-5.42,46.65-.5,7.38,10.98,7.35,11.48,0,.99-14.62,2.64-29.14,5.01-43.6,1.18-7.23-9.88-10.34-11.07-3.05h0Z"/>
        <path class="cls-3" d="m1084.55,461.2c19.94,1.32,39.6.13,59.27-3.34,7.27-1.28,4.19-12.35-3.05-11.07-18.66,3.29-37.32,4.18-56.22,2.93-7.38-.49-7.35,11,0,11.48h0Z"/>
        <path class="cls-3" d="m1172.22,404.07c.88-13.5-.25-26.96-3.93-40.01-1.92-6.81-4.47-20.7-12.6-22.8-1.85-.48-4.3-.07-5.59,1.48-5.56,6.69-7.34,17.04-8.55,25.41-1.04,7.23,10.02,10.35,11.07,3.05.8-5.59,1.83-15.82,5.59-20.34-1.86.49-3.72.98-5.59,1.48-2.81-2.65-2.35-.95,1.37,5.07.47,1.28.94,2.56,1.4,3.84,1.56,4.51,2.79,9.13,3.73,13.82,1.93,9.65,2.24,19.21,1.6,29.01-.48,7.38,11.01,7.35,11.48,0h0Z"/>
        <path class="cls-3" d="m1134.45,369.82c-1.3-3.69-2.7-7.34-4.23-10.94-1.27-2.99-2.4-6.58-4.69-8.94-1.5-1.54-4.1-1.87-5.94-.77-3.66,2.19-5.06,6.72-6.32,10.57-1.82,5.53-3.54,11.1-5.3,16.65-1.92,6.03,7.54,8.61,9.46,2.61,1.28-4.01,2.55-8.02,3.83-12.03.56-1.77,1.96-8.54,3.29-9.33-1.98-.26-3.96-.51-5.94-.77,1.6,1.65,2.66,5.77,3.47,7.76,1.05,2.57,2,5.18,2.92,7.79,2.08,5.91,11.56,3.37,9.46-2.61h0Z"/>
        <path class="cls-3" d="m1143.23,365.59c-12.54,8.54-26.87,4.77-40.98,6.44-11.24,1.33-24.4,5.43-32.17,14.18-6.51,7.33-7.66,17.67-6.55,27.12.45,3.8,1.11,7.41,3.5,10.55,3.24,4.27,9.84,4.81,9.02,11.94-.84,7.33,10.65,7.27,11.48,0,.81-7.06-.97-10.32-5.49-15.09-5.14-5.42-8.22-8.87-7.1-16.61,1.49-10.31,7.65-14.72,17-18.08,18.97-6.82,39.52,1.43,57.07-10.53,6.07-4.14.33-14.09-5.8-9.92h0Z"/>
        <path class="cls-3" d="m1076.71,407.55c7.39,0,7.4-11.48,0-11.48s-7.4,11.48,0,11.48h0Z"/>
        <path class="cls-3" d="m1084.55,385.56c7.39,0,7.4-11.48,0-11.48s-7.4,11.48,0,11.48h0Z"/>
        <path class="cls-3" d="m1074.52,409.5c5.29-1.95,9.8-5.83,12.31-10.91.68-1.37-.13-3.08-1.77-3.09-3.41-.01-6.83-.02-10.24-.03-1.07,0-2.1.95-2.05,2.05s.9,2.05,2.05,2.05c3.41.01,6.83.02,10.24.03-.59-1.03-1.18-2.06-1.77-3.09-.55,1.12-1.21,2.17-1.95,3.18.17-.23.07-.09-.04.05-.09.11-.18.22-.27.33-.2.24-.4.47-.62.7-.42.46-.86.9-1.32,1.32-.23.21-.47.41-.71.61-.11.09-.22.18-.33.27-.19.15.26-.19-.06.04-.5.37-1.01.72-1.55,1.05s-1.08.62-1.64.9c-.25.12-.51.24-.77.36.44-.2-.08.03-.14.05-.16.06-.32.12-.48.18-1,.37-1.79,1.41-1.43,2.52.32.98,1.45,1.83,2.52,1.43h0Z"/>
        <path class="cls-3" d="m1070.68,409c.43,4.94,3.23,6.54,7.88,7.46,4.32.85,8.76-.02,11.18-3.97,1.54-2.52-2.41-4.82-3.95-2.31-1.29,2.1-3.79,2.27-6.02,1.87-2.14-.38-4.31-.59-4.52-3.05-.25-2.91-4.83-2.94-4.57,0h0Z"/>
        <path class="cls-3" d="m1123.6,418.51c14.7-.43,28.68,3.31,42.69,7.29,2.62.75,3.74-3.33,1.12-4.08-14.41-4.1-28.72-7.88-43.82-7.44-2.72.08-2.73,4.31,0,4.23h0Z"/>
        <path class="cls-3" d="m1107.54,466.75c6.78,0,6.79-10.53,0-10.53s-6.79,10.53,0,10.53h0Z"/>
        <path class="cls-3" d="m1149.32,428.73c-9.16-3.18-18.53-5.05-28.2-5.7-2.93-.2-2.92,4.37,0,4.57,9.27.62,18.22,2.49,26.99,5.53,2.78.97,3.98-3.44,1.21-4.4h0Z"/>
      </g>
      <g>
        <path class="cls-3" d="m935.2,375.99c19.8,3.78,39.59,7.57,59.39,11.35,7.54,1.44,24.64,1.57,29.32,8.67,3.6,5.46,3.47,19.23,4.62,25.78.88-2.16,1.76-4.32,2.64-6.48-12.56,5.55-25.06,7.82-38.78,7.49-7.39-.18-7.39,11.31,0,11.48,15.74.38,30.19-2.7,44.58-9.06,2.45-1.08,3.05-4.17,2.64-6.48-1.6-9.14-1.52-22-6.29-30.14-3.84-6.55-10.68-7.47-17.6-8.87-25.76-5.22-51.65-9.87-77.46-14.8-7.22-1.38-10.32,9.69-3.05,11.07h0Z"/>
        <path class="cls-3" d="m962.16,401.73c7.39,0,7.4-11.48,0-11.48s-7.4,11.48,0,11.48h0Z"/>
        <path class="cls-3" d="m1028.51,411.47c-3.16-3.53-11.51-12.02-8.16-17.47-1.65.95-3.31,1.9-4.96,2.84-2.01-.79-2.29-.38-.84,1.22.27.52.54,1.03.81,1.55.98,1.9,1.85,3.87,2.75,5.81,1.79,3.83,3.58,7.65,5.36,11.48,3.13,6.69,13.03.87,9.92-5.8-3.04-6.51-5.73-13.4-9.37-19.6-2.55-4.34-7.8-9.02-12.7-4.47-4.11,3.81-3.27,11.74-1.69,16.46,2.1,6.25,6.41,11.27,10.74,16.1,4.94,5.52,13.04-2.63,8.12-8.12h0Z"/>
        <path class="cls-3" d="m915.93,380.17c-.02,9.23,2.14,17.99,6.24,26.23,3.29,6.62,13.2.81,9.92-5.8-3.2-6.43-4.69-13.26-4.68-20.44.02-7.39-11.47-7.4-11.48,0h0Z"/>
        <path class="cls-3" d="m1021.99,392.05c9.39,5.4,9.3,17.24,9.36,26.77.05,7.39,11.53,7.4,11.48,0-.09-13.92-1.78-29.06-15.04-36.69-6.42-3.69-12.21,6.23-5.8,9.92h0Z"/>
        <path class="cls-3" d="m914.81,378.26c-3.48,10.83-4.67,30.28,5.39,38.12,3.45,2.69,9.54,4.76,13.42,1.65,5.29-4.24.64-11.27-1.33-15.93-3.01,2.32-6.01,4.64-9.02,6.96l.37-.37c.8,7.27,12.3,7.35,11.48,0-.36-3.22-1.09-5.68-3.74-7.75-5.25-4.12-11.6.83-9.02,6.96.09.22,1.78,5.21,2.23,4.1,1.34-1.34,2.67-2.67,4.01-4.01-6.39,2.14-3.49-24.3-2.73-26.67,2.27-7.05-8.82-10.07-11.07-3.05h0Z"/>
        <path class="cls-3" d="m1001.55,435.64c2.37,14.46,4.02,28.98,5.01,43.6.5,7.33,11.99,7.39,11.48,0-1.06-15.64-2.89-31.18-5.42-46.65-1.19-7.28-12.26-4.19-11.07,3.05h0Z"/>
        <path class="cls-3" d="m1004.74,449.91c-18.89,1.25-37.56.36-56.22-2.93-7.23-1.27-10.33,9.79-3.05,11.07,19.67,3.47,39.32,4.66,59.27,3.34,7.34-.48,7.39-11.97,0-11.48h0Z"/>
        <path class="cls-3" d="m991.23,383.36c7.39,0,7.4-11.48,0-11.48s-7.4,11.48,0,11.48h0Z"/>
        <path class="cls-3" d="m992.02,422.53c-2.38,0-4.75-.17-7.11-.48.53.07,1.06.14,1.59.21-2.64-.37-5.24-.93-7.8-1.68-3.01-.88-6.67,1.07-7.38,4.19-.73,3.21.97,6.43,4.19,7.38,5.33,1.56,10.95,2.36,16.5,2.38,1.54,0,3.16-.67,4.24-1.76,1.04-1.04,1.82-2.75,1.76-4.24-.15-3.26-2.63-5.99-6-6h0Z"/>
        <path class="cls-3" d="m982.74,466.95c6.78,0,6.79-10.53,0-10.53s-6.79,10.53,0,10.53h0Z"/>
        <path class="cls-3" d="m920.67,403.18c1.98,4.04,3.2,8.29,5.04,12.36,1.69,3.73,8.25,3.79,9.92,0,2.36-5.38-.56-11.7-5.33-14.8-6.22-4.04-11.98,5.9-5.8,9.92-.33-.21.27.51.3.57.15.27.32,1.79.35.89.26-.97.52-1.93.78-2.9l-.23.52h9.92c-.68-1.51-1.16-3.72-1.87-5.44-.97-2.35-2.05-4.64-3.17-6.92-1.36-2.78-5.32-3.54-7.86-2.06-2.84,1.66-3.43,5.06-2.06,7.86h0Z"/>
        <path class="cls-3" d="m935.44,407.13c-.82-2.43-1.78-4.64-3.47-6.59-1.4-1.61-3.26-2.82-5.05-3.96-2.54-1.62-6.45-.61-7.86,2.06-1.5,2.84-.65,6.13,2.06,7.86.57.37,1.13.77,1.7,1.13.66.42-.64-.62-.09-.07.26.26.55.51.82.77.64.62.06-.11-.06-.11.11,0,.4.69.46.79.53.92-.13-.54.05.1.1.36.26.72.38,1.08.96,2.84,3.99,5,7.06,4.01,2.82-.91,5.04-4.02,4.01-7.06h0Z"/>
        <path class="cls-3" d="m921.13,404.3c1,1.61,2.09,3.19,2.99,4.86.25.47.45.91.63,1.37.6,1.53,0,1.31.76.2,1.14-.88,2.29-1.76,3.43-2.64.85-.03,1.62.27,2.33.88-2.09-2.29-6-2.12-8.12,0-2.28,2.28-2.09,5.82,0,8.12,1.96,2.16,4.85,2.73,7.64,2.31,3.53-.53,5.63-3.38,5.86-6.85.34-5.15-2.99-9.9-5.6-14.06-3.91-6.25-13.85-.5-9.92,5.8h0Z"/>
        <path class="cls-3" d="m992.94,434.54c3.79.12,7.57.03,11.35-.26,3.09-.24,5.74-2.47,5.74-5.74,0-2.92-2.63-5.98-5.74-5.74-3.78.29-7.56.38-11.35.26-3.1-.1-5.74,2.71-5.74,5.74,0,3.19,2.63,5.65,5.74,5.74h0Z"/>
        <path class="cls-3" d="m992.95,428.34c2.73.09,5.48.19,8.21-.05,2.77-.25,5.51-.78,8.24-1.28,5.26-.97,10.39-2.24,15.29-4.44,1.42-.64,1.76-2.71,1.04-3.95-.86-1.46-2.52-1.68-3.95-1.04-4.4,1.97-9.19,2.99-13.91,3.86-2.32.43-4.65.91-7,1.1-2.63.21-5.28.12-7.92.03-3.72-.13-3.71,5.65,0,5.77h0Z"/>
        <path class="cls-3" d="m1036.21,419.01c-.65.3-1.3.6-1.96.87.24-.1.48-.2.72-.3-.61.26-1.23.51-1.86.74-.39.09-.73.27-1.02.54-.33.21-.58.49-.77.84-.22.34-.34.72-.36,1.11-.09.4-.07.8.05,1.2.23.73.68,1.43,1.38,1.79.68.36,1.57.58,2.31.3,1.53-.58,3.05-1.22,4.54-1.92.35-.19.63-.45.84-.77.27-.29.44-.63.54-1.02.12-.4.14-.8.05-1.2-.02-.4-.14-.77-.36-1.11-.41-.64-1.03-1.2-1.79-1.38-.27-.04-.53-.07-.8-.11-.54,0-1.05.14-1.51.41h0Z"/>
        <path class="cls-3" d="m1035.43,422.5c3.86,0,3.87-6,0-6s-3.87,6,0,6h0Z"/>
        <path class="cls-3" d="m1034.63,421.88c3.93,0,3.94-6.11,0-6.11s-3.94,6.11,0,6.11h0Z"/>
        <path class="cls-3" d="m1028.42,382.45c-3.26-1.7-6.82-2.65-10.49-2.78-1.57-.06-3.07,1.42-3,3,.07,1.67,1.32,2.94,3,3,.7.03,1.4.08,2.09.17l-.8-.11c1.82.25,3.59.73,5.28,1.44l-.72-.3c.55.23,1.08.48,1.61.76,1.39.72,3.32.4,4.1-1.08.73-1.38.41-3.33-1.08-4.1h0Z"/>
        <path class="cls-3" d="m1038.36,420.9c3.93,0,3.94-6.11,0-6.11s-3.94,6.11,0,6.11h0Z"/>
        <path class="cls-3" d="m1035.72,424.27c.5.17.93.15,1.42.08.56-.08.77-.15,1.34-.43.2-.1.39-.24.57-.37.37-.26.75-.54,1.09-.85.34-.3.62-.69.88-1.05s.43-.84.59-1.27.2-.95.25-1.4.05-.93.03-1.4c-.03-.79-.31-1.55-.88-2.12-.27-.29-.59-.5-.97-.62-.36-.19-.74-.27-1.16-.26-.78.03-1.58.29-2.12.88s-.91,1.32-.88,2.12c.02.47.03.94-.03,1.4.04-.27.07-.53.11-.8-.04.25-.1.49-.19.72.1-.24.2-.48.3-.72-.07.17-.17.33-.28.48.16-.2.31-.4.47-.61-.18.23-.38.42-.61.59.2-.16.4-.31.61-.47-.27.21-.56.44-.88.57.24-.1.48-.2.72-.3-.06.02-.11.04-.17.05.27-.04.53-.07.8-.11-.04,0-.08,0-.11,0l.8.11s-.08-.01-.11-.03c-.4-.12-.8-.14-1.2-.05-.4.02-.77.14-1.11.36-.35.19-.63.45-.84.77-.27.29-.44.63-.54,1.02-.17.77-.14,1.63.3,2.31.16.2.31.4.47.61.37.37.82.63,1.32.77h0Z"/>
      </g>
    </g>
  </g>
  <path class="cls-2" d="m122.47,66.44c-30.5,0-55.56,9.43-75.22,28.27-19.67,18.87-29.49,42.33-29.49,70.41s9.82,51.56,29.49,70.39c19.65,18.87,44.72,28.29,75.22,28.29s54.15-9.42,73.41-28.29c19.25-18.83,28.88-42.3,28.88-70.39s-9.63-51.54-28.88-70.41c-19.25-18.83-43.73-28.27-73.41-28.27Z"/>
  <path class="cls-2" d="m0,83.3C44.75,79.71,50.85,19,18.14,0H0v83.3Z"/>
  <path class="cls-2" d="m127.16,41.38c27.31,0,41.62-20.21,42.94-41.38h-85.87c1.29,21.17,15.59,41.38,42.94,41.38Z"/>
  <path class="cls-2" d="m246.74,7.83c-57.35,0-57.44,89.12,0,89.12s57.44-89.12,0-89.12Z"/>
  <path class="cls-2" d="m1834.77,618.26h46.45c-4.68-9.51-11.03-18.22-19.09-26.11-19.25-18.83-43.73-28.27-73.41-28.27s-55.56,9.43-75.22,28.27c-8.23,7.9-14.73,16.6-19.52,26.11h140.77Z"/>
  <path class="cls-2" d="m1662.05,580.91c57.35,0,57.44-89.12,0-89.12s-57.44,89.12,0,89.12Z"/>
  <path class="cls-2" d="m1793.42,538.81c57.35,0,57.44-89.12,0-89.12s-57.44,89.12,0,89.12Z"/>
  <path class="cls-2" d="m1919.67,505.7c-2.13-.28-4.35-.44-6.67-.44-57.35,0-57.44,89.12,0,89.12,2.32,0,4.54-.16,6.67-.44v-88.24Z"/>
</svg>