<?xml version="1.0" encoding="UTF-8"?>
<svg id="Camada_1" data-name="Camada 1" xmlns="http://www.w3.org/2000/svg" viewBox="0 0 1920 618">
  <defs>
    <style>
      .cls-1 {
        font-family: Poppins-SemiBold, Poppins;
        font-size: 301.99px;
        font-weight: 600;
      }

      .cls-1, .cls-2, .cls-3 {
        fill: #f39200;
      }

      .cls-4 {
        fill: #9d9d9c;
      }

      .cls-3 {
        opacity: .4;
      }

      .cls-5 {
        fill: #ededed;
      }
    </style>
  </defs>
  <rect class="cls-5" width="1919.67" height="618"/>
  <g>
    <path class="cls-2" d="m959.05,57.98c9.53-9.25,22.42-14.95,36.61-14.95,25.74,0,47.24,18.73,52.04,43.48h8.02c-4.9-29.2-29.96-51.51-60.06-51.51-19.09,0-36.15,8.97-47.33,22.98h10.72Z"/>
    <path class="cls-2" d="m1047.49,107.41c-4.83,24.75-26.45,43.48-52.32,43.48s-47.91-19.11-52.45-44.22h-8.06c4.62,29.57,29.99,52.25,60.51,52.25s55.45-22.3,60.38-51.51h-8.06Z"/>
    <path class="cls-4" d="m888.68,83.41c-.93,1.74-2.39,3.15-4.38,4.22-1.99,1.07-4.49,1.6-7.52,1.6h-6.17v14.3h-7.39v-37.24h13.56c2.85,0,5.28.5,7.28,1.49,2,1,3.51,2.37,4.51,4.11,1,1.74,1.5,3.72,1.5,5.92,0,1.99-.47,3.86-1.4,5.6Zm-7.68-1.63c.98-.94,1.48-2.27,1.48-3.98,0-3.63-2-5.44-6.02-5.44h-5.86v10.83h5.86c2.04,0,3.55-.47,4.54-1.41Z"/>
    <path class="cls-4" d="m922.26,90.99h-21.37c.18,2.13.91,3.81,2.22,5.02,1.3,1.21,2.9,1.81,4.8,1.81,2.74,0,4.7-1.19,5.86-3.57h7.97c-.84,2.85-2.46,5.18-4.85,7.02-2.39,1.83-5.33,2.75-8.81,2.75-2.81,0-5.34-.63-7.57-1.89-2.23-1.26-3.98-3.05-5.22-5.36-1.25-2.31-1.87-4.98-1.87-8s.62-5.74,1.85-8.06c1.23-2.31,2.95-4.09,5.17-5.34,2.22-1.24,4.77-1.87,7.65-1.87s5.27.61,7.47,1.81c2.2,1.21,3.9,2.93,5.12,5.15,1.21,2.22,1.82,4.78,1.82,7.66,0,1.07-.07,2.03-.21,2.88Zm-7.44-5.01c-.04-1.92-.72-3.46-2.06-4.62-1.34-1.16-2.97-1.73-4.91-1.73-1.83,0-3.37.56-4.62,1.68s-2.01,2.68-2.29,4.67h13.88Z"/>
    <path class="cls-4" d="m936.45,80.1v14.3c0,1,.24,1.72.71,2.16.48.45,1.27.67,2.4.67h3.43v6.3h-4.64c-6.23,0-9.34-3.06-9.34-9.18v-14.25h-3.48v-6.14h3.48v-7.31h7.44v7.31h6.54v6.14h-6.54Z"/>
    <path class="cls-2" d="m971.4,68.58c2.94,1.53,5.21,3.71,6.81,6.54,1.6,2.83,2.4,6.11,2.4,9.84s-.8,7-2.4,9.79c-1.6,2.79-3.87,4.95-6.81,6.48-2.94,1.53-6.34,2.29-10.21,2.29h-12.87v-37.24h12.87c3.87,0,7.27.76,10.21,2.29Zm-1.5,25.4c2.11-2.13,3.17-5.14,3.17-9.02s-1.06-6.91-3.17-9.1c-2.11-2.19-5.1-3.28-8.97-3.28h-5.22v24.6h5.22c3.87,0,6.86-1.07,8.97-3.2Z"/>
    <path class="cls-2" d="m1013.11,90.99h-21.37c.18,2.13.91,3.81,2.22,5.02,1.3,1.21,2.9,1.81,4.8,1.81,2.74,0,4.7-1.19,5.86-3.57h7.97c-.84,2.85-2.46,5.18-4.85,7.02-2.39,1.83-5.33,2.75-8.81,2.75-2.81,0-5.34-.63-7.57-1.89-2.23-1.26-3.98-3.05-5.22-5.36-1.25-2.31-1.87-4.98-1.87-8s.62-5.74,1.85-8.06c1.23-2.31,2.95-4.09,5.17-5.34,2.22-1.24,4.77-1.87,7.65-1.87s5.27.61,7.47,1.81c2.2,1.21,3.9,2.93,5.12,5.15,1.21,2.22,1.82,4.78,1.82,7.66,0,1.07-.07,2.03-.21,2.88Zm-7.44-5.01c-.04-1.92-.72-3.46-2.06-4.62-1.34-1.16-2.97-1.73-4.91-1.73-1.83,0-3.37.56-4.62,1.68-1.25,1.12-2.01,2.68-2.3,4.67h13.88Z"/>
    <path class="cls-2" d="m1034.85,103.53l-6.02-9.18-5.33,9.18h-7.91l9.55-14.83-9.66-14.73h8.34l5.96,9.12,5.38-9.12h7.91l-9.6,14.73,9.71,14.83h-8.34Z"/>
    <path class="cls-4" d="m1048.69,102.65c-.86-.84-1.29-1.88-1.29-3.12s.43-2.29,1.29-3.12c.86-.84,1.96-1.25,3.3-1.25s2.37.42,3.22,1.25c.84.84,1.27,1.88,1.27,3.12s-.42,2.29-1.27,3.12c-.84.84-1.92,1.25-3.22,1.25s-2.44-.42-3.3-1.25Z"/>
    <g>
      <path class="cls-4" d="m1046.44,95.91c2.51,0,2.52-3.95,0-3.95s-2.52,3.95,0,3.95h0Z"/>
      <path class="cls-4" d="m1052.2,94.04c2.51,0,2.52-3.95,0-3.95s-2.52,3.95,0,3.95h0Z"/>
      <path class="cls-4" d="m1057.44,96.5c2.51,0,2.52-3.95,0-3.95s-2.52,3.95,0,3.95h0Z"/>
    </g>
    <g>
      <g>
        <path class="cls-4" d="m1013.84,120.96c2.14,0,2.14-3.36,0-3.36s-2.14,3.36,0,3.36h0Z"/>
        <path class="cls-4" d="m1004.91,130c-.73,4.53-1.26,9.08-1.57,13.66-.15,2.16,3.18,2.15,3.33,0,.29-4.28.77-8.53,1.45-12.77.34-2.12-2.86-3.03-3.21-.89h0Z"/>
        <path class="cls-4" d="m1007.23,138.44c5.78.39,11.47.04,17.17-.98,2.1-.38,1.21-3.62-.88-3.24-5.4.96-10.81,1.22-16.28.86-2.14-.14-2.13,3.22,0,3.36h0Z"/>
        <path class="cls-4" d="m1032.63,121.71c.25-3.95-.07-7.9-1.14-11.72-.56-1.99-1.29-6.06-3.65-6.68-.54-.14-1.24-.02-1.62.43-1.61,1.96-2.13,4.99-2.48,7.44-.3,2.12,2.9,3.03,3.21.89.23-1.64.53-4.63,1.62-5.96l-1.62.43c-.81-.77-.68-.28.4,1.49l.41,1.13c.45,1.32.81,2.68,1.08,4.05.56,2.83.65,5.63.46,8.5-.14,2.16,3.19,2.15,3.33,0h0Z"/>
        <path class="cls-4" d="m1021.69,111.67c-.38-1.08-.78-2.15-1.23-3.2-.37-.87-.69-1.93-1.36-2.62-.43-.45-1.19-.55-1.72-.22-1.06.64-1.46,1.97-1.83,3.1-.53,1.62-1.02,3.25-1.54,4.88-.56,1.77,2.19,2.52,2.74.76.37-1.17.74-2.35,1.11-3.52.16-.52.57-2.5.95-2.73l-1.72-.22c.46.48.77,1.69,1.01,2.27.3.75.58,1.52.85,2.28.6,1.73,3.35.99,2.74-.76h0Z"/>
        <path class="cls-4" d="m1024.23,110.44c-3.63,2.5-7.78,1.4-11.87,1.89-3.26.39-7.07,1.59-9.32,4.15-1.89,2.15-2.22,5.18-1.9,7.94.13,1.11.32,2.17,1.01,3.09.94,1.25,2.85,1.41,2.61,3.5-.24,2.15,3.08,2.13,3.33,0,.23-2.07-.28-3.02-1.59-4.42-1.49-1.59-2.38-2.6-2.06-4.87.43-3.02,2.22-4.31,4.92-5.3,5.5-2,11.44.42,16.53-3.08,1.76-1.21.1-4.13-1.68-2.9h0Z"/>
        <path class="cls-4" d="m1004.96,122.73c2.14,0,2.14-3.36,0-3.36s-2.14,3.36,0,3.36h0Z"/>
        <path class="cls-4" d="m1007.23,116.29c2.14,0,2.14-3.36,0-3.36s-2.14,3.36,0,3.36h0Z"/>
        <path class="cls-4" d="m1004.33,123.3c1.53-.57,2.84-1.71,3.57-3.2.2-.4-.04-.9-.51-.9-.99,0-1.98,0-2.97-.01-.31,0-.61.28-.59.6s.26.6.59.6c.99,0,1.98,0,2.97.01l-.51-.9c-.16.33-.35.64-.56.93.05-.07.02-.03-.01.02-.03.03-.05.06-.08.1-.06.07-.12.14-.18.21-.12.13-.25.26-.38.39-.07.06-.13.12-.2.18-.03.03-.06.05-.1.08-.05.05.07-.05-.02.01-.15.11-.29.21-.45.31s-.31.18-.47.26c-.07.04-.15.07-.22.1.13-.06-.02,0-.04.02-.05.02-.09.04-.14.05-.29.11-.52.41-.41.74.09.29.42.54.73.42h0Z"/>
        <path class="cls-4" d="m1003.22,123.15c.12,1.45.94,1.92,2.28,2.18,1.25.25,2.54,0,3.24-1.16.45-.74-.7-1.41-1.14-.68-.37.62-1.1.66-1.74.55s-1.25-.17-1.31-.89c-.07-.85-1.4-.86-1.33,0h0Z"/>
        <path class="cls-4" d="m1018.55,125.94c4.26-.12,8.31.97,12.36,2.14.76.22,1.08-.98.33-1.19-4.17-1.2-8.32-2.31-12.69-2.18-.79.02-.79,1.26,0,1.24h0Z"/>
        <path class="cls-4" d="m1013.89,140.07c1.96,0,1.97-3.09,0-3.09s-1.97,3.09,0,3.09h0Z"/>
        <path class="cls-4" d="m1025.99,128.93c-2.65-.93-5.37-1.48-8.17-1.67-.85-.06-.85,1.28,0,1.34,2.68.18,5.28.73,7.82,1.62.81.28,1.15-1.01.35-1.29h0Z"/>
      </g>
      <g>
        <path class="cls-4" d="m963.98,113.48c5.73,1.11,11.47,2.22,17.2,3.32,2.18.42,7.14.46,8.49,2.54,1.04,1.6,1.01,5.63,1.34,7.55.25-.63.51-1.27.76-1.9-3.64,1.63-7.26,2.29-11.23,2.19-2.14-.05-2.14,3.31,0,3.36,4.56.11,8.74-.79,12.91-2.65.71-.32.88-1.22.76-1.9-.46-2.68-.44-6.44-1.82-8.83-1.11-1.92-3.09-2.19-5.1-2.6-7.46-1.53-14.96-2.89-22.44-4.34-2.09-.4-2.99,2.84-.88,3.24h0Z"/>
        <path class="cls-4" d="m971.79,121.02c2.14,0,2.14-3.36,0-3.36s-2.14,3.36,0,3.36h0Z"/>
        <path class="cls-4" d="m991,123.87c-.91-1.03-3.33-3.52-2.36-5.12-.48.28-.96.56-1.44.83-.58-.23-.66-.11-.24.36l.24.45c.28.56.53,1.13.8,1.7.52,1.12,1.04,2.24,1.55,3.36.91,1.96,3.77.25,2.87-1.7s-1.66-3.92-2.71-5.74c-.74-1.27-2.26-2.64-3.68-1.31-1.19,1.12-.95,3.44-.49,4.82.61,1.83,1.86,3.3,3.11,4.71,1.43,1.62,3.78-.77,2.35-2.38h0Z"/>
        <path class="cls-4" d="m958.39,114.71c0,2.7.62,5.27,1.81,7.68.95,1.94,3.82.24,2.87-1.7-.93-1.88-1.36-3.89-1.35-5.99s-3.32-2.17-3.33,0h0Z"/>
        <path class="cls-4" d="m989.12,118.19c2.72,1.58,2.69,5.05,2.71,7.84.01,2.16,3.34,2.17,3.33,0-.03-4.08-.51-8.51-4.36-10.75-1.86-1.08-3.54,1.82-1.68,2.9h0Z"/>
        <path class="cls-4" d="m958.07,114.15c-1.01,3.17-1.35,8.87,1.56,11.16,1,.79,2.76,1.39,3.89.48,1.53-1.24.18-3.3-.39-4.67l-2.61,2.04.11-.11c.23,2.13,3.56,2.15,3.33,0-.1-.94-.32-1.66-1.08-2.27-1.52-1.21-3.36.24-2.61,2.04.03.06.52,1.53.65,1.2l1.16-1.17c-1.85.63-1.01-7.12-.79-7.81.66-2.07-2.55-2.95-3.21-.89h0Z"/>
        <path class="cls-4" d="m983.2,130.95c.69,4.24,1.16,8.49,1.45,12.77.14,2.15,3.47,2.16,3.33,0-.31-4.58-.84-9.13-1.57-13.66-.35-2.13-3.55-1.23-3.21.89h0Z"/>
        <path class="cls-4" d="m984.12,135.13c-5.47.37-10.88.1-16.28-.86-2.09-.37-2.99,2.87-.88,3.24,5.7,1.02,11.39,1.37,17.17.98,2.12-.14,2.14-3.51,0-3.36h0Z"/>
        <path class="cls-4" d="m980.21,115.64c2.14,0,2.14-3.36,0-3.36s-2.14,3.36,0,3.36h0Z"/>
        <path class="cls-4" d="m980.44,127.11c-.69,0-1.38-.05-2.06-.14l.46.06c-.76-.11-1.52-.27-2.26-.49-.87-.26-1.93.31-2.14,1.23s.28,1.88,1.21,2.16c1.54.46,3.17.69,4.78.7.44,0,.91-.2,1.23-.51s.53-.8.51-1.24c-.04-.95-.76-1.75-1.74-1.76h0Z"/>
        <path class="cls-4" d="m977.75,140.12c1.96,0,1.97-3.09,0-3.09s-1.97,3.09,0,3.09h0Z"/>
        <path class="cls-4" d="m959.77,121.45c.57,1.18.93,2.43,1.46,3.62.49,1.09,2.39,1.11,2.87,0,.68-1.58-.16-3.43-1.54-4.33-1.8-1.18-3.47,1.73-1.68,2.9-.09-.06.08.15.09.17.04.08.09.53.1.26l.23-.85-.07.15h2.87c-.2-.44-.34-1.09-.54-1.59-.28-.69-.6-1.36-.92-2.03-.4-.82-1.54-1.04-2.28-.6-.82.49-.99,1.48-.6,2.3h0Z"/>
        <path class="cls-4" d="m964.05,122.6c-.24-.71-.52-1.36-1.01-1.93-.41-.47-.94-.83-1.46-1.16-.73-.47-1.87-.18-2.28.6-.44.83-.19,1.79.6,2.3.17.11.33.22.49.33.19.12-.18-.18-.03-.02.08.08.16.15.24.23.19.18.02-.03-.02-.03.03,0,.12.2.13.23.15.27-.04-.16.01.03.03.11.07.21.11.32.28.83,1.16,1.47,2.05,1.17.82-.27,1.46-1.18,1.16-2.07h0Z"/>
        <path class="cls-4" d="m959.9,121.78c.29.47.61.93.86,1.42.07.14.13.27.18.4.17.45,0,.38.22.06l.99-.77c.24,0,.47.08.67.26-.6-.67-1.74-.62-2.35,0-.66.67-.61,1.7,0,2.38.57.63,1.4.8,2.21.68,1.02-.16,1.63-.99,1.7-2,.1-1.51-.87-2.9-1.62-4.12-1.13-1.83-4.01-.15-2.87,1.7h0Z"/>
        <path class="cls-4" d="m980.7,130.63c1.1.03,2.19,0,3.29-.08.9-.07,1.66-.72,1.66-1.68,0-.86-.76-1.75-1.66-1.68-1.1.09-2.19.11-3.29.08-.9-.03-1.66.79-1.66,1.68,0,.93.76,1.65,1.66,1.68h0Z"/>
        <path class="cls-4" d="m980.7,128.82c.79.03,1.59.06,2.38-.02s1.6-.23,2.39-.37c1.52-.28,3.01-.66,4.43-1.3.41-.19.51-.79.3-1.16-.25-.43-.73-.49-1.14-.3-1.27.58-2.66.88-4.03,1.13-.67.12-1.35.27-2.03.32-.76.06-1.53.04-2.29,0-1.08-.04-1.08,1.65,0,1.69h0Z"/>
        <path class="cls-4" d="m993.23,126.08c-.19.09-.38.17-.57.26l.21-.09c-.18.08-.36.15-.54.22-.11.03-.21.08-.3.16-.09.06-.17.14-.22.25-.06.1-.1.21-.1.33-.03.12-.02.23.02.35.07.21.2.42.4.52s.45.17.67.09c.44-.17.88-.36,1.31-.56.1-.06.18-.13.24-.23.08-.08.13-.18.16-.3.04-.12.04-.23.02-.35,0-.12-.04-.23-.1-.33-.12-.19-.3-.35-.52-.4l-.23-.03c-.16,0-.3.04-.44.12h0Z"/>
        <path class="cls-4" d="m993.01,127.11c1.12,0,1.12-1.76,0-1.76s-1.12,1.76,0,1.76h0Z"/>
        <path class="cls-4" d="m992.78,126.92c1.14,0,1.14-1.79,0-1.79s-1.14,1.79,0,1.79h0Z"/>
        <path class="cls-4" d="m990.98,115.37c-.94-.5-1.97-.77-3.04-.81-.45-.02-.89.42-.87.88.02.49.38.86.87.88.2,0,.4.02.61.05l-.23-.03c.53.07,1.04.21,1.53.42l-.21-.09c.16.07.31.14.47.22.4.21.96.12,1.19-.32.21-.4.12-.98-.31-1.2h0Z"/>
        <path class="cls-4" d="m993.86,126.64c1.14,0,1.14-1.79,0-1.79s-1.14,1.79,0,1.79h0Z"/>
        <path class="cls-4" d="m993.09,127.63c.15.05.27.04.41.02.16-.02.22-.04.39-.12.06-.03.11-.07.17-.11.11-.08.22-.16.32-.25s.18-.2.25-.31.13-.25.17-.37.06-.28.07-.41.01-.27,0-.41c-.01-.23-.09-.45-.25-.62-.08-.09-.17-.15-.28-.18-.1-.05-.22-.08-.33-.08-.22.01-.46.08-.61.26s-.26.39-.25.62c0,.14,0,.27,0,.41l.03-.23c-.01.07-.03.14-.05.21l.09-.21c-.02.05-.05.1-.08.14l.14-.18c-.05.07-.11.12-.18.17l.18-.14c-.08.06-.16.13-.25.17l.21-.09s-.03.01-.05.01l.23-.03s-.02,0-.03,0l.23.03s-.02,0-.03,0c-.12-.04-.23-.04-.35-.02-.12,0-.22.04-.32.1-.1.06-.18.13-.24.23-.08.08-.13.18-.16.3-.05.22-.04.48.09.68l.14.18c.11.11.24.18.38.23h0Z"/>
      </g>
    </g>
  </g>
  <path class="cls-3" d="m122.47,66.44c-30.5,0-55.56,9.43-75.22,28.27-19.67,18.87-29.49,42.33-29.49,70.41s9.82,51.56,29.49,70.39c19.65,18.87,44.72,28.29,75.22,28.29s54.15-9.42,73.41-28.29c19.25-18.83,28.88-42.3,28.88-70.39s-9.63-51.54-28.88-70.41c-19.25-18.83-43.73-28.27-73.41-28.27Z"/>
  <path class="cls-3" d="m0,83.3C44.75,79.71,50.85,19,18.14,0H0v83.3Z"/>
  <path class="cls-3" d="m127.16,41.38c27.31,0,41.62-20.21,42.94-41.38h-85.87c1.29,21.17,15.59,41.38,42.94,41.38Z"/>
  <path class="cls-3" d="m246.74,7.83c-57.35,0-57.44,89.12,0,89.12s57.44-89.12,0-89.12Z"/>
  <path class="cls-3" d="m1834.77,618.26h46.45c-4.68-9.51-11.03-18.22-19.09-26.11-19.25-18.83-43.73-28.27-73.41-28.27s-55.56,9.43-75.22,28.27c-8.23,7.9-14.73,16.6-19.52,26.11h140.77Z"/>
  <path class="cls-3" d="m1662.05,580.91c57.35,0,57.44-89.12,0-89.12s-57.44,89.12,0,89.12Z"/>
  <path class="cls-3" d="m1793.42,538.81c57.35,0,57.44-89.12,0-89.12s-57.44,89.12,0,89.12Z"/>
  <path class="cls-3" d="m1919.67,505.7c-2.13-.28-4.35-.44-6.67-.44-57.35,0-57.44,89.12,0,89.12,2.32,0,4.54-.16,6.67-.44v-88.24Z"/>
  <text class="cls-1" transform="translate(728.18 449.68)"><tspan x="0" y="0">IOT</tspan></text>
</svg>